<?xml version="1.0" encoding="UTF-8" standalone="no"?>
<svg
   width="256"
   height="256"
   viewBox="0 0 256 256"
   fill="none"
   version="1.1"
   id="svg1"
   sodipodi:docname="air.svg"
   inkscape:version="1.4.3 (0d15f75042, 2025-12-25)"
   inkscape:export-filename="air.png"
   inkscape:export-xdpi="96"
   inkscape:export-ydpi="96"
   xmlns:inkscape="http://www.inkscape.org/namespaces/inkscape"
   xmlns:sodipodi="http://sodipodi.sourceforge.net/DTD/sodipodi-0.dtd"
   xmlns="http://www.w3.org/2000/svg"
   xmlns:svg="http://www.w3.org/2000/svg">
  <defs
     id="defs1" />
  <sodipodi:namedview
     id="namedview1"
     pagecolor="#ffffff"
     bordercolor="#000000"
     borderopacity="0.25"
     inkscape:showpageshadow="2"
     inkscape:pageopacity="0.0"
     inkscape:pagecheckerboard="true"
     inkscape:deskcolor="#d1d1d1"
     inkscape:zoom="2.1360518"
     inkscape:cx="82.629082"
     inkscape:cy="51.028725"
     inkscape:window-width="2560"
     inkscape:window-height="1371"
     inkscape:window-x="0"
     inkscape:window-y="0"
     inkscape:window-maximized="1"
     inkscape:current-layer="svg1" />
  <rect
     style="fill:#292928;fill-opacity:1"
     id="rect1"
     width="178.36646"
     height="67.414093"
     x="38.816772"
     y="94.292953" />
  <path
     fill-rule="evenodd"
     clip-rule="evenodd"
     d="m 128,0 c 70.69184,0 128,57.30752 128,128 0,70.69184 -57.30816,128 -128,128 C 57.30752,256 0,198.69184 0,128 0,57.30752 57.30752,0 128,0 Z M 93.750016,107.24992 c -7.025536,0 -13.890304,1.35808 -20.37504,4.04992 -6.493952,2.6816 -12.304128,6.55488 -17.275008,11.51232 l -3.049984,3.05024 c -4.061568,4.0512 -4.061568,10.624 0,14.6752 4.060672,4.04608 10.639616,4.04608 14.700032,0 L 70.8,137.48736 C 76.92608,131.37152 85.080832,128 93.750016,128 c 4.144768,0 8.201724,0.78976 12.049664,2.32448 l 36.67584,14.62528 c 6.3168,2.52032 12.97408,3.79904 19.77472,3.80032 7.02848,-0.001 13.8816,-1.3696 20.37504,-4.04992 6.49344,-2.6816 12.30336,-6.55488 17.27488,-11.51232 l 3.05024,-3.05024 c 4.06144,-4.0512 4.06144,-10.624 0,-14.6752 -4.06144,-4.04608 -10.63936,-4.04608 -14.7008,0 l -3.04896,3.05024 C 179.07328,124.62848 170.91968,128 162.25024,128 c -4.14464,0 -8.20224,-0.78976 -12.04992,-2.32448 l -36.67584,-14.62528 c -6.3168,-2.52032 -12.75072,-3.79904 -19.774464,-3.80032 z"
     fill="#1f1e1e"
     fill-opacity="0.95"
     id="path1"
     style="display:inline;fill:#ffffff;fill-opacity:1;stroke-width:12.8"
     inkscape:label="circle" />
</svg>
