<svg width="24" height="24" viewBox="0 0 24 24" fill="none" xmlns="http://www.w3.org/2000/svg">
<path fill-rule="evenodd" clip-rule="evenodd" d="M12 1.125C18.0061 1.125 22.875 5.9939 22.875 12C22.875 18.0061 18.0061 22.875 12 22.875C5.9939 22.875 1.125 18.0061 1.125 12C1.125 5.9939 5.9939 1.125 12 1.125ZM19.6211 10.166C19.2805 9.82325 18.7256 9.82147 18.3828 10.1621L13.749 14.7656L13.3164 14.3359C12.9736 13.9955 12.4197 13.9971 12.0791 14.3398C11.7387 14.6826 11.7404 15.2366 12.083 15.5771L13.1328 16.6211C13.4741 16.9601 14.026 16.9602 14.3672 16.6211L19.6172 11.4033C19.9597 11.0628 19.9613 10.5088 19.6211 10.166ZM16.8203 7.38281C16.4797 7.04045 15.9257 7.03851 15.583 7.37891L8.49902 14.417L5.61719 11.5537C5.27442 11.2131 4.71955 11.2139 4.37891 11.5566C4.03827 11.8994 4.04006 12.4543 4.38281 12.7949L7.88281 16.2725C8.22408 16.6115 8.77595 16.6116 9.11719 16.2725L16.8164 8.62109C17.1592 8.28047 17.1609 7.72559 16.8203 7.38281Z" fill="black"/>
</svg>
