<svg width="24" height="24" viewBox="0 0 24 24" fill="none" xmlns="http://www.w3.org/2000/svg">
<path d="M15.125 21V19C15.125 18.1712 14.796 17.3761 14.21 16.79C13.6606 16.2407 12.9275 15.9173 12.1553 15.8789L12 15.875H6C5.1712 15.875 4.37609 16.204 3.79004 16.79C3.20399 17.3761 2.875 18.1712 2.875 19V21C2.875 21.4832 2.48325 21.875 2 21.875C1.51675 21.875 1.125 21.4832 1.125 21V19C1.125 17.7071 1.63849 16.467 2.55273 15.5527C3.46697 14.6385 4.70707 14.125 6 14.125H12C13.2929 14.125 14.533 14.6385 15.4473 15.5527C16.3615 16.467 16.875 17.7071 16.875 19V21C16.875 21.4832 16.4832 21.875 16 21.875C15.5168 21.875 15.125 21.4832 15.125 21ZM21.125 21V19.001L21.1143 18.7422C21.064 18.1422 20.8408 17.5677 20.4697 17.0889C20.0455 16.5417 19.4516 16.1506 18.7812 15.9775C18.3133 15.8567 18.0315 15.379 18.1523 14.9111C18.2732 14.4432 18.7508 14.1624 19.2188 14.2832C20.2646 14.5533 21.1908 15.1629 21.8525 16.0166C22.5142 16.8702 22.8741 17.919 22.875 18.999V21C22.875 21.4832 22.4832 21.875 22 21.875C21.5168 21.875 21.125 21.4832 21.125 21ZM12.125 7C12.125 5.27411 10.7259 3.875 9 3.875C7.27411 3.875 5.875 5.27411 5.875 7C5.875 8.72589 7.27411 10.125 9 10.125C10.7259 10.125 12.125 8.72589 12.125 7ZM18.1211 7C18.1211 6.30784 17.8913 5.63534 17.4678 5.08789C17.0441 4.54039 16.4504 4.14834 15.7803 3.97461C15.3126 3.85324 15.0321 3.37591 15.1533 2.9082C15.2747 2.44059 15.752 2.16 16.2197 2.28125C17.265 2.55228 18.1907 3.16258 18.8516 4.0166C19.5125 4.8707 19.8711 5.92005 19.8711 7C19.8711 8.07995 19.5125 9.1293 18.8516 9.9834C18.1907 10.8374 17.265 11.4477 16.2197 11.7188C15.752 11.84 15.2747 11.5594 15.1533 11.0918C15.0321 10.6241 15.3126 10.1468 15.7803 10.0254C16.4504 9.85166 17.0441 9.45961 17.4678 8.91211C17.8913 8.36466 18.1211 7.69216 18.1211 7ZM13.875 7C13.875 9.69239 11.6924 11.875 9 11.875C6.30761 11.875 4.125 9.69239 4.125 7C4.125 4.30761 6.30761 2.125 9 2.125C11.6924 2.125 13.875 4.30761 13.875 7Z" fill="#1F1E1E" fill-opacity="0.95"/>
</svg>
