<svg width="24" height="24" viewBox="0 0 24 24" fill="none" xmlns="http://www.w3.org/2000/svg">
<path d="M21.3808 9.38079C21.7225 9.03908 22.2774 9.03908 22.6191 9.38079C22.9608 9.7225 22.9608 10.2774 22.6191 10.6191L15.1191 18.1191C14.7774 18.4608 14.2225 18.4608 13.8808 18.1191L12.3808 16.6191C12.0391 16.2774 12.0391 15.7225 12.3808 15.3808C12.7225 15.0391 13.2774 15.0391 13.6191 15.3808L14.4999 16.2617L21.3808 9.38079ZM17.3808 5.38079C17.7225 5.03908 18.2774 5.03908 18.6191 5.38079C18.9608 5.7225 18.9608 6.27737 18.6191 6.61907L7.61907 17.6191C7.27737 17.9608 6.7225 17.9608 6.38079 17.6191L1.38079 12.6191C1.03908 12.2774 1.03908 11.7225 1.38079 11.3808C1.7225 11.0391 2.27737 11.0391 2.61907 11.3808L6.99993 15.7617L17.3808 5.38079Z" fill="#1F1E1E" fill-opacity="0.95"/>
</svg>
