<svg width="24" height="24" viewBox="0 0 24 24" fill="none" xmlns="http://www.w3.org/2000/svg">
<path d="M19.1249 19.9999V12.9999C19.1249 12.1711 18.7959 11.376 18.2099 10.79C17.6238 10.2039 16.8287 9.87493 15.9999 9.87493H6.11321L9.61907 13.3808C9.96078 13.7225 9.96078 14.2774 9.61907 14.6191C9.27737 14.9608 8.7225 14.9608 8.38079 14.6191L3.38079 9.61907C3.03908 9.27737 3.03908 8.7225 3.38079 8.38079L8.38079 3.38079C8.7225 3.03908 9.27737 3.03908 9.61907 3.38079C9.96078 3.7225 9.96078 4.27737 9.61907 4.61907L6.11321 8.12493H15.9999C17.2929 8.12493 18.533 8.63843 19.4472 9.55267C20.3614 10.4669 20.8749 11.707 20.8749 12.9999V19.9999C20.8749 20.4832 20.4832 20.8749 19.9999 20.8749C19.5167 20.8749 19.1249 20.4832 19.1249 19.9999Z" fill="#1F1E1E" fill-opacity="0.95"/>
</svg>
