<svg width="875" height="401" viewBox="0 0 875 401" fill="none" xmlns="http://www.w3.org/2000/svg">
<path d="M397.887 371.06C402.827 380.94 398.827 392.95 388.947 397.89C386.077 399.33 383.027 400.01 380.017 400.01C372.677 400.01 365.617 395.96 362.117 388.95L332.117 328.95C327.177 319.07 331.177 307.06 341.057 302.12C350.937 297.18 362.947 301.18 367.887 311.06L397.887 371.06ZM58.9469 302.11C49.0669 297.17 37.0569 301.18 32.1169 311.05L2.11688 371.05C-2.82312 380.93 1.17688 392.94 11.0569 397.88C13.9269 399.32 16.9769 400 19.9869 400C27.3269 400 34.3869 395.95 37.8869 388.94L67.8869 328.94C72.8269 319.06 68.8269 307.05 58.9469 302.11ZM111.097 197.89C113.967 199.33 117.017 200 120.027 200C127.367 200 134.427 195.95 137.937 188.94L200.017 64.73L262.087 188.88C266.917 198.54 278.537 202.62 288.347 198.1C298.157 193.58 302.597 182.09 298.397 172.14L298.137 171.53C297.797 170.72 297.407 169.95 296.977 169.21L217.887 11.06C214.497 4.28 207.577 0 199.997 0C192.417 0 185.497 4.28 182.107 11.06L102.137 171.06C97.1969 180.94 101.207 192.95 111.087 197.89H111.097ZM479.997 0C468.957 0 459.997 8.95 459.997 20V380C459.997 391.05 468.947 400 479.997 400C491.047 400 499.997 391.05 499.997 380V20C499.997 8.95 491.047 0 479.997 0ZM855.057 366.83C862.327 375.14 861.487 387.78 853.177 395.05C849.387 398.37 844.687 400 840.017 400C834.447 400 828.907 397.69 824.957 393.17L725.937 280H620.017V380C620.017 391.05 611.067 400 600.017 400C588.967 400 580.017 391.05 580.017 380V20C579.997 8.95 588.957 0 599.997 0H734.997C812.197 0 874.997 62.8 874.997 140C874.997 203.6 832.367 257.42 774.187 274.41L855.057 366.83ZM619.997 240H734.997C790.137 240 834.997 195.14 834.997 140C834.997 84.86 790.137 40 734.997 40H619.997V240ZM331.697 233.76C326.057 224.26 313.787 221.13 304.287 226.77L299.007 229.9C288.207 236.32 272.817 239.99 256.777 239.99C248.857 239.99 241.147 239.11 233.857 237.38L170.377 222.3C160.067 219.85 149.247 218.61 138.217 218.61C114.867 218.61 92.6169 224.19 75.5669 234.31L70.2869 237.44C60.7869 243.08 57.6669 255.35 63.2969 264.85C68.9369 274.35 81.2069 277.47 90.7069 271.84L95.9869 268.71C106.787 262.29 122.177 258.62 138.217 258.62C146.137 258.62 153.847 259.5 161.137 261.23L224.617 276.31C234.927 278.76 245.747 280 256.777 280C280.127 280 302.377 274.42 319.427 264.3L324.707 261.17C334.207 255.53 337.327 243.26 331.697 233.76Z" fill="black"/>
</svg>
