<?xml version="1.0" encoding="UTF-8" standalone="no"?>
<svg
   width="166"
   height="624.00024"
   viewBox="0 0 166 624.00024"
   fill="none"
   version="1.1"
   id="svg1"
   sodipodi:docname="tilde.svg"
   inkscape:version="1.4.3 (0d15f75, 2025-12-25)"
   xmlns:inkscape="http://www.inkscape.org/namespaces/inkscape"
   xmlns:sodipodi="http://sodipodi.sourceforge.net/DTD/sodipodi-0.dtd"
   xmlns="http://www.w3.org/2000/svg"
   xmlns:svg="http://www.w3.org/2000/svg">
  <defs
     id="defs1" />
  <sodipodi:namedview
     id="namedview1"
     pagecolor="#ffffff"
     bordercolor="#000000"
     borderopacity="0.25"
     inkscape:showpageshadow="2"
     inkscape:pageopacity="0.0"
     inkscape:pagecheckerboard="0"
     inkscape:deskcolor="#d1d1d1"
     inkscape:zoom="0.24930047"
     inkscape:cx="-154.43212"
     inkscape:cy="1249.4963"
     inkscape:window-width="1024"
     inkscape:window-height="1022"
     inkscape:window-x="0"
     inkscape:window-y="30"
     inkscape:window-maximized="0"
     inkscape:current-layer="svg1" />
  <path
     d="m 0,449.02101 c 0,-27.20901 5.104,-53.835 15.189,-79.109 L 73.7247,223.197 c 6.142,-15.393 9.2545,-31.618 9.2545,-48.197 0,-34.677 -13.4667,-67.27299 -37.9312,-91.777495 l -12.18,-12.2106 c -16.206,-16.2461 -16.206,-42.5811 0,-58.8273 16.206,-16.24614 42.4752,-16.24614 58.681,0 l 12.1802,12.2106 c 19.837,19.8865 35.3373,43.122 46.0651,69.1034 C 160.5635,119.43801 166,146.876 166,174.979 c 0,28.103 -5.1045,53.835 -15.189,79.109 L 92.2753,400.803 c -6.1421,15.39301 -9.2546,31.618 -9.2546,48.197 0,34.677 13.4668,67.273 37.9311,91.777 l 12.1802,12.211 c 16.2057,16.24601 16.2057,42.58101 0,58.827 -16.2057,16.247 -42.4752,16.247 -58.681,0 l -12.18,-12.21 C 42.434,579.718 26.933,556.48301 16.206,530.50101 5.478,504.52001 0.041,477.10301 0.041,448.97901 Z"
     fill="#000000"
     id="path1" />
</svg>
